<?xml version="1.0" standalone="no"?>
<!DOCTYPE svg PUBLIC "-//W3C//DTD SVG 20010904//EN"
 "http://www.w3.org/TR/2001/REC-SVG-20010904/DTD/svg10.dtd">
<svg version="1.0" xmlns="http://www.w3.org/2000/svg"
 width="150.000000pt" height="50.000000pt" viewBox="0 0 150.000000 50.000000"
 preserveAspectRatio="xMidYMid meet">
<metadata>
Created by potrace 1.10, written by Peter Selinger 2001-2011
</metadata>
<g transform="translate(0.000000,50.000000) scale(0.100000,-0.100000)"
fill="#000000" stroke="none">
<path d="M416 365 c39 -116 7 -208 -89 -254 -50 -24 -83 -26 -123 -8 -91 39
-128 92 -128 184 0 35 -3 58 -8 51 -4 -7 -8 -42 -8 -77 0 -55 4 -71 32 -114
34 -53 106 -97 161 -97 54 0 126 40 160 89 28 41 31 54 31 116 1 50 -5 79 -17
100 -10 17 -15 21 -11 10z"/>
<path d="M214 354 c-37 -18 -54 -64 -42 -110 11 -43 40 -66 85 -66 76 0 112
97 58 156 -13 14 -28 26 -34 26 -5 0 -15 2 -23 5 -7 2 -27 -2 -44 -11z m83
-36 c13 -12 23 -33 23 -47 0 -32 -37 -71 -67 -71 -56 0 -84 80 -41 120 28 26
56 25 85 -2z"/>
<path d="M238 313 c6 -2 18 -2 25 0 6 3 1 5 -13 5 -14 0 -19 -2 -12 -5z"/>
<path d="M207 303 c-14 -14 -6 -61 13 -78 11 -10 23 -16 26 -13 10 11 -8 58
-23 58 -10 0 -14 7 -10 20 5 21 4 24 -6 13z"/>
<path d="M296 272 c-4 -13 -5 -26 -2 -29 10 -11 18 4 14 29 l-4 23 -8 -23z"/>
<path d="M520 282 c0 -26 5 -53 12 -60 15 -15 51 -15 66 0 14 14 16 108 2 108
-5 0 -10 -15 -10 -34 0 -43 -9 -66 -25 -66 -16 0 -25 23 -25 66 0 19 -4 34
-10 34 -5 0 -10 -22 -10 -48z"/>
<path d="M679 273 c24 -80 43 -81 69 -4 17 50 18 61 6 61 -8 0 -18 -19 -26
-47 l-11 -47 -14 47 c-8 26 -20 47 -27 47 -11 0 -11 -11 3 -57z"/>
<path d="M820 270 c0 -33 4 -60 10 -60 6 0 10 27 10 60 0 33 -4 60 -10 60 -6
0 -10 -27 -10 -60z"/>
<path d="M895 319 c-4 -6 2 -13 14 -16 17 -4 21 -13 21 -49 0 -24 5 -44 10
-44 6 0 10 20 10 45 0 33 4 45 15 45 8 0 15 7 15 15 0 18 -75 22 -85 4z"/>
<path d="M1037 293 c-11 -80 -10 -83 34 -83 21 0 39 5 39 10 0 6 -11 10 -25
10 -16 0 -25 6 -25 15 0 8 9 15 20 15 11 0 20 5 20 10 0 6 -9 10 -20 10 -11 0
-20 6 -20 13 0 8 10 13 21 13 12 -1 24 5 26 12 3 8 -7 12 -30 12 -33 0 -36 -2
-40 -37z"/>
<path d="M1182 314 c-26 -18 -30 -65 -6 -88 17 -18 74 -22 74 -6 0 6 -11 10
-25 10 -27 0 -48 30 -39 55 4 9 19 19 35 22 16 3 26 9 23 14 -8 14 -37 11 -62
-7z"/>
<path d="M1300 270 c0 -47 3 -60 15 -60 9 0 15 9 15 25 0 18 5 25 20 25 15 0
20 -7 20 -25 0 -16 6 -25 15 -25 12 0 15 13 15 60 0 47 -3 60 -15 60 -9 0 -15
-9 -15 -25 0 -18 -5 -25 -20 -25 -15 0 -20 7 -20 25 0 16 -6 25 -15 25 -12 0
-15 -13 -15 -60z"/>
<path d="M550 145 c0 -6 7 -12 15 -12 8 0 15 6 15 12 0 6 -7 12 -15 12 -8 0
-15 -6 -15 -12z"/>
<path d="M590 145 c0 -8 2 -15 4 -15 2 0 6 7 10 15 3 8 1 15 -4 15 -6 0 -10
-7 -10 -15z"/>
<path d="M616 143 c-6 -14 -5 -15 5 -6 7 7 10 15 7 18 -3 3 -9 -2 -12 -12z"/>
<path d="M640 144 c0 -8 5 -12 10 -9 6 3 10 10 10 16 0 5 -4 9 -10 9 -5 0 -10
-7 -10 -16z"/>
<path d="M670 151 c0 -6 5 -13 10 -16 6 -3 10 1 10 9 0 9 -4 16 -10 16 -5 0
-10 -4 -10 -9z"/>
<path d="M700 151 c0 -6 4 -12 8 -15 5 -3 9 1 9 9 0 8 -4 15 -9 15 -4 0 -8 -4
-8 -9z"/>
<path d="M730 145 c0 -8 5 -15 10 -15 6 0 10 7 10 15 0 8 -4 15 -10 15 -5 0
-10 -7 -10 -15z"/>
<path d="M761 144 c0 -11 3 -14 6 -6 3 7 2 16 -1 19 -3 4 -6 -2 -5 -13z"/>
<path d="M830 151 c0 -6 4 -13 10 -16 6 -3 7 1 4 9 -7 18 -14 21 -14 7z"/>
<path d="M880 150 c0 -5 5 -10 10 -10 6 0 10 5 10 10 0 6 -4 10 -10 10 -5 0
-10 -4 -10 -10z"/>
<path d="M911 144 c0 -11 3 -14 6 -6 3 7 2 16 -1 19 -3 4 -6 -2 -5 -13z"/>
<path d="M942 146 c7 -8 15 -10 16 -5 2 6 11 4 20 -3 14 -10 15 -10 5 2 -7 7
-22 15 -33 17 -17 2 -19 1 -8 -11z"/>
<path d="M1047 144 c5 -13 7 -13 14 -2 7 10 9 11 9 0 0 -7 5 -10 10 -7 18 11
10 25 -15 25 -18 0 -23 -4 -18 -16z"/>
<path d="M1106 153 c-3 -3 -6 -11 -6 -17 0 -6 5 -4 10 4 6 9 13 11 18 5 11
-15 32 -17 32 -2 0 13 -42 21 -54 10z"/>
<path d="M1181 143 c-17 -19 16 -18 35 1 12 13 12 15 -4 13 -10 0 -24 -7 -31
-14z"/>
<path d="M1241 144 c0 -11 3 -14 6 -6 3 7 2 16 -1 19 -3 4 -6 -2 -5 -13z"/>
<path d="M1286 143 c12 -12 16 -12 28 0 12 12 10 14 -14 14 -24 0 -26 -2 -14
-14z"/>
<path d="M1341 144 c0 -11 3 -14 6 -6 3 7 2 16 -1 19 -3 4 -6 -2 -5 -13z"/>
<path d="M1360 150 c0 -5 5 -10 10 -10 6 0 10 5 10 10 0 6 -4 10 -10 10 -5 0
-10 -4 -10 -10z"/>
<path d="M1390 151 c0 -6 4 -13 10 -16 6 -3 7 1 4 9 -7 18 -14 21 -14 7z"/>
</g>
</svg>
